<svg class="wk-icon" version="1.1" viewBox="0 0 48 48" xmlns="http://www.w3.org/2000/svg">
    <path d="m48 0v48h-48v-48h48zm-22.8 11.201h-2.401c-2.402 0.0038766-2.8864 0.02239-4.0756 0.076507-1.3627 0.062401-2.2928 0.27814-3.1067 0.59467-0.84188 0.32694-1.556 0.76427-2.2675 1.476-0.71201 0.71147-1.1493 1.4256-1.4773 2.2672-0.31734 0.81414-0.53334 1.7446-0.59467 3.1067-0.053188 1.1892-0.072188 1.6738-0.076206 4.0758l-2.26e-5 2.4046c0.003925 2.4017 0.022611 2.8851 0.076495 4.0743 0.062667 1.3627 0.2784 2.2928 0.59467 3.1067 0.3272 0.84188 0.76454 1.556 1.4763 2.2675 0.71121 0.71201 1.4253 1.1504 2.2667 1.4773 0.81441 0.31654 1.7448 0.53227 3.1072 0.59467 1.2773 0.058125 1.7412 0.075178 4.6415 0.077136h1.2719c2.9006-0.0019583 3.3636-0.01901 4.6409-0.077136 1.3627-0.062401 2.2939-0.27814 3.1083-0.59467 0.84161-0.32694 1.5547-0.76534 2.2659-1.4773 0.71201-0.71147 1.1493-1.4256 1.4773-2.2672 0.31467-0.81414 0.53067-1.7446 0.59467-3.1067 0.061334-1.3653 0.077334-1.8006 0.077334-5.2769 0-3.4763-0.016-3.9126-0.077334-5.2779-0.064001-1.3627-0.28-2.2928-0.59467-3.1067-0.328-0.84188-0.76534-1.556-1.4773-2.2675-0.71201-0.71201-1.424-1.1493-2.2667-1.476-0.81601-0.31654-1.7467-0.53227-3.1094-0.59467-1.1892-0.054117-1.6724-0.07263-4.0748-0.076507zm-2.3469 2.3027v0.0032l0.54174-2e-4 1.7875 8.918e-4c2.3569 0.0032908 2.8159 0.019489 3.9913 0.072909 1.248 0.057067 1.9254 0.2656 2.3766 0.4408 0.59734 0.232 1.0232 0.50934 1.4709 0.95734 0.448 0.448 0.72534 0.87468 0.95788 1.472 0.1752 0.45067 0.384 1.128 0.4408 2.376 0.050967 1.1213 0.068788 1.5907 0.073357 3.6774v2.9866c-0.0045688 2.0867-0.022391 2.5562-0.073357 3.6774-0.057067 1.248-0.2656 1.9254-0.4408 2.376-0.232 0.59734-0.50987 1.0227-0.95788 1.4704-0.448 0.448-0.87334 0.72534-1.4709 0.95734-0.45067 0.176-1.1285 0.384-2.3766 0.44107-1.1241 0.051097-1.5931 0.06888-3.6944 0.073392l-2.659 5.349e-4c-2.3571-0.0034996-2.816-0.020507-3.9912-0.073927-1.248-0.057601-1.9254-0.26614-2.3768-0.44134-0.59734-0.232-1.024-0.50934-1.472-0.95734-0.448-0.448-0.72534-0.87361-0.95788-1.4712-0.1752-0.45067-0.384-1.128-0.4408-2.376-0.051097-1.1241-0.068139-1.5931-0.072404-3.6948l-5.045e-4 -2.6592c0.0032908-2.3569 0.019489-2.8144 0.072909-3.9896 0.057067-1.248 0.2656-1.9254 0.4408-2.3766 0.232-0.59734 0.50987-1.024 0.95788-1.472 0.448-0.448 0.87468-0.72534 1.472-0.95788 0.4512-0.176 1.1288-0.384 2.3768-0.44134 1.1808-0.053334 1.6384-0.069334 4.024-0.072001zm1.148 3.9232c-3.6299 0-6.5731 2.9432-6.5731 6.5734 0 3.6302 2.9432 6.5721 6.5734 6.5721 3.6302 0 6.5723-2.9419 6.5723-6.5721 0-3.6302-2.9424-6.5734-6.5726-6.5734zm2.667e-4 2.3067c2.3563 0 4.2667 1.9102 4.2667 4.2667 0 2.3563-1.9104 4.2667-4.2667 4.2667-2.3566 0-4.2667-1.9104-4.2667-4.2667 0-2.3566 1.9102-4.2667 4.2667-4.2667zm6.8326-4.1019c-0.84801 5.334e-4 -1.536 0.68774-1.536 1.536 0 0.84801 0.68801 1.536 1.536 1.536 0.84801 0 1.536-0.68801 1.536-1.536 0-0.84801-0.68801-1.536-1.536-1.536z"/>
</svg>
