<svg version="1.1" viewBox="0 0 48 48" xmlns="http://www.w3.org/2000/svg">
    <path d="m48 0v48h-48v-48h48zm-27.684 17.124c-0.43823 0.21017-0.7763 0.67967-0.5697 0.70671 0.25418 0.033184 0.83014 0.1524 1.1357 0.56045 0.39441 0.52726 0.38064 1.7096 0.38064 1.7096s0.22663 3.2595-0.52964 3.6638c-0.51837 0.27777-1.2296-0.28883-2.7584-2.8809-0.78256-1.3274-1.3736-2.7949-1.3736-2.7949s-0.11394-0.27408-0.31803-0.42157c-0.24666-0.17821-0.59099-0.23352-0.59099-0.23352l-3.6574 0.023352s-0.54967 0.014749-0.75126 0.2495c-0.17905 0.20771-0.013773 0.63911-0.013773 0.63911s2.8635 6.5767 6.1065 9.8914c2.8416 2.9032 6.0501 2.8504 6.3297 2.84l1.5497-8.782e-4s0.46202-0.050391 0.69867-0.29989c0.19495-0.20574 0.20836-0.57575 0.20909-0.64769l1.73e-5 -0.05555c0.0024032-0.29411 0.054047-1.997 0.92404-2.2686 0.93907-0.29251 2.1448 1.9481 3.4245 2.8096 0.96662 0.6514 1.7003 0.50883 1.7003 0.50883l3.4195-0.046704s1.788-0.10816 0.94032-1.4884l-0.019979-0.034794c-0.1164-0.20811-0.61578-1.1152-2.5218-2.8523-2.1448-1.953-1.8569-1.6371 0.72496-5.0158 1.5726-2.0574 2.2012-3.3135 2.0046-3.8506-0.18656-0.51374-1.3435-0.37732-1.3435-0.37732l-3.8489 0.023352s-0.28548-0.038101-0.49708 0.086034c-0.2066 0.12168-0.34057 0.40559-0.34057 0.40559s-0.60852 1.5916-1.4211 2.946c-1.7141 2.8563-2.399 3.0075-2.6795 2.8305-0.65234-0.41419-0.48957-1.6617-0.48957-2.5478 0-2.7691 0.42822-3.9231-0.83264-4.2218-0.4182-0.099553-0.72622-0.16469-1.7968-0.17575-1.3736-0.01352-2.5355 0.0049163-3.1941 0.32078z"/>
</svg>
