<svg version="1.1" viewBox="0 0 146 15" xmlns="http://www.w3.org/2000/svg">
    <g fill="none" fill-rule="evenodd">
        <g transform="translate(24.126 3.934)">
            <path d="m4.494 10.066 1.526-5.194 0.42-1.456h0.028l0.406 1.4 1.54 5.25h1.4c0.14-0.59733 0.30567-1.2693 0.497-2.016s0.385-1.512 0.581-2.296 0.38967-1.554 0.581-2.31 0.36167-1.4373 0.511-2.044h0.882v-0.924h-2.968v0.924h0.924l-1.302 5.67-0.378 1.666h-0.028l-0.42-1.498-1.75-5.838h0.994l-0.014-0.924h-3.178l0.014 0.924h0.966l0.14 0.406-1.54 5.306-0.448 1.68h-0.028l-0.378-1.666-1.386-5.726h0.952v-0.924h-3.038v0.924h0.854l2.212 8.666h1.428zm10.678-7.882c0.21467 0 0.39433-0.074667 0.539-0.224s0.217-0.322 0.217-0.518c0-0.21467-0.072333-0.39433-0.217-0.539-0.14467-0.14467-0.32433-0.217-0.539-0.217-0.20533 0-0.38033 0.072333-0.525 0.217-0.14467 0.14467-0.217 0.32433-0.217 0.539 0 0.196 0.072333 0.36867 0.217 0.518s0.31967 0.224 0.525 0.224zm0.448 7.966c0.15867 0 0.35233-0.023333 0.581-0.07s0.43167-0.112 0.609-0.196v-0.686h-1.022v-5.95h-1.848v0.882h0.714v5.04c0.0093333 0.38267 0.091 0.64167 0.245 0.777 0.154 0.13533 0.39433 0.203 0.721 0.203zm5.862-0.084v-0.868h-0.994v-9.086h-2.24v0.882h1.106v8.204h-0.98v0.868h3.108zm4.084 0.112c0.364 0 0.73733-0.072333 1.12-0.217 0.38267-0.14467 0.70933-0.32433 0.98-0.539l0.028 0.014v0.63h2.156v-0.868h-1.064v-9.086h-2.296v0.882h1.148v2.534c-0.32667-0.17733-0.658-0.29867-0.994-0.364s-0.63467-0.098-0.896-0.098c-0.504 0-0.93333 0.095667-1.288 0.287s-0.64167 0.45267-0.861 0.784-0.378 0.72333-0.476 1.176-0.147 0.94033-0.147 1.463c0 0.45733 0.042 0.89133 0.126 1.302s0.22867 0.77233 0.434 1.085 0.47133 0.56 0.798 0.742 0.73733 0.273 1.232 0.273zm0.28-0.938c-0.252 0-0.483-0.039667-0.693-0.119s-0.38733-0.21467-0.532-0.406-0.259-0.44333-0.343-0.756-0.126-0.707-0.126-1.183c0-0.54133 0.046667-0.99167 0.14-1.351s0.22167-0.644 0.385-0.854 0.35-0.357 0.56-0.441 0.43633-0.126 0.679-0.126c0.15867 0 0.322 0.016333 0.49 0.049s0.33133 0.072333 0.49 0.119 0.30333 0.10033 0.434 0.161 0.23333 0.119 0.308 0.175v4.032c-0.084 0.084-0.19367 0.16567-0.329 0.245s-0.28467 0.154-0.448 0.224-0.33133 0.126-0.504 0.168-0.343 0.063-0.511 0.063z"
                  fill="#FCCA7A"/>
            <path d="m39.95 10.066v-1.708h-0.854v-1.806l0.938-0.812 1.75 2.604h-0.742l0.014 1.722h4.536v-1.722h-0.784l-2.828-4.172 2.436-2.072h0.896v-1.68h-4.326v1.68h0.742l-2.632 2.31v-2.31h0.924v-1.68h-4.564v1.68h1.022v6.258h-1.022v1.708h4.494zm12.596 0.168c0.35467 0 0.72333-0.035 1.106-0.105s0.72333-0.175 1.022-0.315c-0.018667-0.24267-0.037333-0.48067-0.056-0.714s-0.037333-0.47133-0.056-0.714h-0.952v-2.898c0-0.45733-0.067667-0.84467-0.203-1.162s-0.329-0.57167-0.581-0.763-0.55767-0.329-0.917-0.413-0.763-0.126-1.211-0.126c-0.27067 0-0.546 0.011667-0.826 0.035s-0.55767 0.060667-0.833 0.112-0.54133 0.112-0.798 0.182-0.48767 0.147-0.693 0.231l0.392 1.568c0.28933-0.093333 0.63-0.168 1.022-0.224s0.75133-0.084 1.078-0.084c0.42 0 0.707 0.081667 0.861 0.245s0.231 0.399 0.231 0.707v0.224l-1.862 0.168c-0.49467 0.056-0.90067 0.14933-1.218 0.28s-0.56933 0.28467-0.756 0.462-0.31733 0.37567-0.392 0.595-0.112 0.45033-0.112 0.693c0 0.196 0.030333 0.413 0.091 0.651s0.175 0.45733 0.343 0.658 0.39433 0.36867 0.679 0.504c0.28467 0.13533 0.651 0.203 1.099 0.203 0.093333 0 0.224-7e-3 0.392-0.021s0.35467-0.051333 0.56-0.112 0.42233-0.15633 0.651-0.287 0.45033-0.308 0.665-0.532l0.014 0.014c0.018667 0.38267 0.14933 0.63467 0.392 0.756 0.24267 0.12133 0.532 0.182 0.868 0.182zm-2.338-1.568c-0.26133 0-0.44567-0.067667-0.553-0.203s-0.161-0.32433-0.161-0.567c0-0.15867 0.051333-0.30333 0.154-0.434s0.27533-0.21467 0.518-0.252l0.938-0.126v1.19c-0.13067 0.12133-0.27533 0.217-0.434 0.287s-0.31267 0.105-0.462 0.105zm16.838 1.554c0.27067 0 0.56467-0.030333 0.882-0.091s0.616-0.14233 0.896-0.245v-1.554h-0.854v-2.828c0-0.37333-0.037333-0.714-0.112-1.022s-0.20067-0.56933-0.378-0.784-0.413-0.38267-0.707-0.504-0.65567-0.182-1.085-0.182c-0.17733 0-0.371 0.023333-0.581 0.07s-0.42 0.112-0.63 0.196-0.41767 0.18667-0.623 0.308-0.392 0.26133-0.56 0.42c-0.168-0.336-0.385-0.58567-0.651-0.749s-0.637-0.245-1.113-0.245c-0.32667 0-0.7 0.067667-1.12 0.203s-0.81667 0.34767-1.19 0.637l-0.056-0.028v-0.658h-3.43v1.652h0.868v5.25h2.646v-4.634c0.18667-0.13067 0.385-0.22867 0.595-0.294s0.385-0.098 0.525-0.098c0.224 0 0.38267 0.072333 0.476 0.217s0.14 0.32433 0.14 0.539v4.27h2.604v-4.256c0-0.13067-0.0093333-0.26133-0.028-0.392 0.14933-0.112 0.32667-0.20533 0.532-0.28s0.38733-0.112 0.546-0.112c0.24267 0 0.41767 0.060667 0.525 0.182s0.161 0.336 0.161 0.644v2.618c0 0.28933 0.021 0.54367 0.063 0.763s0.126 0.40133 0.252 0.546 0.301 0.25433 0.525 0.329 0.518 0.112 0.882 0.112zm6.87-0.014c0.49467 0 0.99167-0.046667 1.491-0.14 0.49933-0.093333 0.94033-0.23333 1.323-0.42-0.074667-0.26133-0.15167-0.532-0.231-0.812s-0.15633-0.546-0.231-0.798c-0.28933 0.093333-0.60667 0.168-0.952 0.224s-0.66267 0.084-0.952 0.084c-0.20533 0-0.39433-0.028-0.567-0.084s-0.322-0.14933-0.448-0.28-0.224-0.31033-0.294-0.539-0.105-0.52033-0.105-0.875c0-0.24267 0.023333-0.47133 0.07-0.686s0.12367-0.399 0.231-0.553 0.24267-0.27533 0.406-0.364 0.36167-0.133 0.595-0.133h0.196c0.084 0 0.15867 0.0093333 0.224 0.028v0.84h1.708v-2.338c-0.35467-0.13067-0.73733-0.22633-1.148-0.287s-0.81667-0.091-1.218-0.091c-0.77467 0-1.4047 0.112-1.89 0.336s-0.86567 0.511-1.141 0.861-0.46433 0.74433-0.567 1.183-0.154 0.868-0.154 1.288c0 0.476 0.051333 0.92867 0.154 1.358s0.29167 0.80733 0.567 1.134 0.64867 0.58567 1.12 0.777c0.47133 0.19133 1.0757 0.287 1.813 0.287zm11.182 0.014c0.27067 0 0.56933-0.030333 0.896-0.091s0.63-0.14233 0.91-0.245v-1.554h-0.896v-2.856c0-0.336-0.039667-0.65567-0.119-0.959s-0.21233-0.567-0.399-0.791-0.43167-0.40133-0.735-0.532-0.679-0.196-1.127-0.196c-0.364 0-0.735 0.067667-1.113 0.203s-0.74433 0.33367-1.099 0.595v-3.794h-3.5v1.638h0.854v8.428h2.646v-4.648c0.15867-0.12133 0.34067-0.22167 0.546-0.301s0.392-0.119 0.56-0.119c0.28933 0 0.504 0.077 0.644 0.231s0.21 0.413 0.21 0.777v2.618c0 0.20533 0.021 0.40367 0.063 0.595s0.12367 0.36167 0.245 0.511 0.29633 0.26833 0.525 0.357c0.22867 0.088667 0.525 0.133 0.889 0.133zm8.872 0.014c0.35467 0 0.72333-0.035 1.106-0.105s0.72333-0.175 1.022-0.315c-0.018667-0.24267-0.037333-0.48067-0.056-0.714s-0.037333-0.47133-0.056-0.714h-0.952v-2.898c0-0.45733-0.067667-0.84467-0.203-1.162s-0.329-0.57167-0.581-0.763-0.55767-0.329-0.917-0.413-0.763-0.126-1.211-0.126c-0.27067 0-0.546 0.011667-0.826 0.035s-0.55767 0.060667-0.833 0.112-0.54133 0.112-0.798 0.182-0.48767 0.147-0.693 0.231l0.392 1.568c0.28933-0.093333 0.63-0.168 1.022-0.224s0.75133-0.084 1.078-0.084c0.42 0 0.707 0.081667 0.861 0.245s0.231 0.399 0.231 0.707v0.224l-1.862 0.168c-0.49467 0.056-0.90067 0.14933-1.218 0.28s-0.56933 0.28467-0.756 0.462-0.31733 0.37567-0.392 0.595-0.112 0.45033-0.112 0.693c0 0.196 0.030333 0.413 0.091 0.651s0.175 0.45733 0.343 0.658 0.39433 0.36867 0.679 0.504c0.28467 0.13533 0.651 0.203 1.099 0.203 0.093333 0 0.224-7e-3 0.392-0.021s0.35467-0.051333 0.56-0.112 0.42233-0.15633 0.651-0.287 0.45033-0.308 0.665-0.532l0.014 0.014c0.018667 0.38267 0.14933 0.63467 0.392 0.756 0.24267 0.12133 0.532 0.182 0.868 0.182zm-2.338-1.568c-0.26133 0-0.44567-0.067667-0.553-0.203s-0.161-0.32433-0.161-0.567c0-0.15867 0.051333-0.30333 0.154-0.434s0.27533-0.21467 0.518-0.252l0.938-0.126v1.19c-0.13067 0.12133-0.27533 0.217-0.434 0.287s-0.31267 0.105-0.462 0.105zm9.124 1.554c0.14933 0 0.315-0.0093333 0.497-0.028s0.36633-0.044333 0.553-0.077 0.37333-0.074667 0.56-0.126c0.18667-0.051333 0.35933-0.10967 0.518-0.175l-0.294-1.68c-0.224 0.046667-0.43633 0.079333-0.637 0.098s-0.35233 0.028-0.455 0.028c-0.37333 0-0.62533-0.07-0.756-0.21s-0.196-0.42467-0.196-0.854v-2.38h1.946v-1.652h-1.946v-2.044l-1.82 0.154-0.602 1.778-1.148 0.336v1.428h0.952v3.066c0 0.27067 0.030333 0.54367 0.091 0.819s0.189 0.525 0.385 0.749 0.48067 0.40833 0.854 0.553c0.37333 0.14467 0.87267 0.217 1.498 0.217zm10.272 0.056c0.084 0 0.20067-0.0046667 0.35-0.014s0.308-0.023333 0.476-0.042 0.33367-0.042 0.497-0.07 0.31033-0.065333 0.441-0.112v-1.414l-0.952-0.168-1.512-2.814 1.092-0.826h0.952v-1.638h-3.402v1.19l-1.246 0.98v-5.306h-3.542v1.596h0.882v6.79h-0.84v1.638h4.144v-1.638h-0.644v-0.812l0.672-0.504 1.218 2.492c0.084 0.15867 0.182 0.28467 0.294 0.378 0.112 0.093333 0.231 0.161 0.357 0.203s0.252 0.067667 0.378 0.077 0.25433 0.014 0.385 0.014zm8.676-0.042c0.35467 0 0.72333-0.035 1.106-0.105s0.72333-0.175 1.022-0.315c-0.018667-0.24267-0.037333-0.48067-0.056-0.714s-0.037333-0.47133-0.056-0.714h-0.952v-2.898c0-0.45733-0.067667-0.84467-0.203-1.162s-0.329-0.57167-0.581-0.763-0.55767-0.329-0.917-0.413-0.763-0.126-1.211-0.126c-0.27067 0-0.546 0.011667-0.826 0.035s-0.55767 0.060667-0.833 0.112-0.54133 0.112-0.798 0.182-0.48767 0.147-0.693 0.231l0.392 1.568c0.28933-0.093333 0.63-0.168 1.022-0.224s0.75133-0.084 1.078-0.084c0.42 0 0.707 0.081667 0.861 0.245s0.231 0.399 0.231 0.707v0.224l-1.862 0.168c-0.49467 0.056-0.90067 0.14933-1.218 0.28s-0.56933 0.28467-0.756 0.462-0.31733 0.37567-0.392 0.595-0.112 0.45033-0.112 0.693c0 0.196 0.030333 0.413 0.091 0.651s0.175 0.45733 0.343 0.658 0.39433 0.36867 0.679 0.504c0.28467 0.13533 0.651 0.203 1.099 0.203 0.093333 0 0.224-7e-3 0.392-0.021s0.35467-0.051333 0.56-0.112 0.42233-0.15633 0.651-0.287 0.45033-0.308 0.665-0.532l0.014 0.014c0.018667 0.38267 0.14933 0.63467 0.392 0.756 0.24267 0.12133 0.532 0.182 0.868 0.182zm-2.338-1.568c-0.26133 0-0.44567-0.067667-0.553-0.203s-0.161-0.32433-0.161-0.567c0-0.15867 0.051333-0.30333 0.154-0.434s0.27533-0.21467 0.518-0.252l0.938-0.126v1.19c-0.13067 0.12133-0.27533 0.217-0.434 0.287s-0.31267 0.105-0.462 0.105z"
                  fill="#fff"/>
        </g>
        <g fill="#fff">
            <path d="m15.478 10.89c-3.5762 0-5.9854-1.243-6.61-3.4104-0.45063-1.5637 0.19306-3.1033 1.0478-3.633 0.29384-0.1821 0.47238-0.19191 0.81772-0.20728 0.36313 0.030334 0.73788 0.21408 1.1114 0.54905 0.73031 0.65493 0.67359 2.1292 0.63609 3.1048-0.022156 0.57619-0.0355 0.92399 0.084 1.179 0.136 0.29021 0.44047 0.43064 0.77553 0.35786 0.51544-0.11199 1.0746-0.7259 1.4261-1.2631 0.51291-0.78393 0.79781-1.6891 0.80225-2.5488 0.0079063-1.5252-0.60219-2.8143-1.7643-3.728-1.0401-0.8178-2.4814-1.276-4.0583-1.2901-2.3544-0.021361-4.7168 0.91663-6.4791 2.5744-1.4589 1.3724-3.2097 3.9054-3.2653 8.1789-0.013813 1.0606 0.04075 1.9951 7.8125e-4 2.6988-0.016906 0.29728 0.22153 0.54753 0.52084 0.54753h14.954c0.28809 0 0.52166-0.23205 0.52166-0.51828v-2.0732c0-0.28626-0.23356-0.51828-0.52166-0.51828zm-14.418 2.0731c0.0050313-0.64878-0.025625-1.389-0.015125-2.1963 0.091188-7.0028 5.0439-9.7663 8.6916-9.7301 2.3937 0.021485 4.8028 1.2593 4.7888 3.9762-0.0057175 1.1008-0.57825 2.0036-1.0077 2.4697 0.0018438-0.050857 0.00375-0.10134 0.005625-0.14978 0.044938-1.1684 0.11281-2.9342-0.97959-3.9139-0.62197-0.55775-1.2979-0.83507-1.9595-0.82339-1.3387-0.024776-2.6382 0.30054-3.7697 0.94733-2.2933 1.311-3.6969 3.7879-3.6903 6.3587 0.00275 1.0562 0.24666 2.0994 0.71106 3.0615h-2.7753zm3.9557 6.21e-5c-1.4486-2.4684-0.98272-5.4115 0.88491-7.3969-0.37759 0.7386-0.60044 1.572-0.64472 2.4416-0.071156 1.3973 0.3235 2.7536 1.1113 3.819 0.32603 0.44094 0.70991 0.82091 1.1442 1.1363h-2.4957zm9.9404 0h-4.6866c-2.8942-0.41694-4.0808-2.7591-3.9716-4.9029 0.066875-1.3136 0.63903-2.653 1.7631-3.5093-0.44081 1.0143-0.49509 2.1772-0.19631 3.2141 0.34522 1.1979 1.1404 2.2079 2.2996 2.9209 1.2305 0.75686 2.8407 1.1707 4.7918 1.2326v1.0446z"/>
        </g>
    </g>
</svg>
